<?xml version="1.0" encoding="utf-8"?>
<!-- Generator: Adobe Illustrator 15.0.2, SVG Export Plug-In  -->
<!DOCTYPE svg PUBLIC "-//W3C//DTD SVG 1.1//EN" "http://www.w3.org/Graphics/SVG/1.1/DTD/svg11.dtd" [
	<!ENTITY ns_flows "http://ns.adobe.com/Flows/1.0/">
]>
<svg version="1.1"
	 xmlns="http://www.w3.org/2000/svg" xmlns:xlink="http://www.w3.org/1999/xlink" xmlns:a="http://ns.adobe.com/AdobeSVGViewerExtensions/3.0/"
	 x="0px" y="0px" width="35px" height="33px" viewBox="-2.997 -3.392 35 33"
	 overflow="visible" enable-background="new -2.997 -3.392 35 33" xml:space="preserve">
<defs>
</defs>
<path fill="#FFFFFF" d="M17.557,8H1V6c0-0.55,0.45-1,1-1h1.334l0.35-1.052C3.857,3.427,4.45,3,5,3h5c0.55,0,1.143,0.427,1.316,0.948
	L11.666,5H17C17,6.128,17.198,7.131,17.557,8 M18.082,9H1c-0.55,0-1,0.45-1,1v14c0,0.55,0.45,1,1,1h22c0.55,0,1-0.45,1-1V12
	C21.506,12,19.321,10.948,18.082,9"/>
<path fill="#FFFFFF" d="M24,0c-2.761,0-5,2.016-5,5c0,3.206,2.239,5,5,5c2.762,0,5-2.238,5-5S26.762,0,24,0 M27,5.5
	C27,5.775,26.775,6,26.5,6H25v1.5C25,7.775,24.775,8,24.5,8h-1C23.225,8,23,7.775,23,7.5V6h-1.5C21.225,6,21,5.775,21,5.5v-1
	C21,4.225,21.225,4,21.5,4H23V2.5C23,2.225,23.225,2,23.5,2h1C24.775,2,25,2.225,25,2.5V4h1.5C26.775,4,27,4.225,27,4.5V5.5z"/>
</svg>
