<?xml version="1.0" encoding="utf-8"?>
<!-- Generator: Adobe Illustrator 15.0.2, SVG Export Plug-In  -->
<!DOCTYPE svg PUBLIC "-//W3C//DTD SVG 1.1//EN" "http://www.w3.org/Graphics/SVG/1.1/DTD/svg11.dtd" [
	<!ENTITY ns_flows "http://ns.adobe.com/Flows/1.0/">
]>
<svg version="1.1"
	 xmlns="http://www.w3.org/2000/svg" xmlns:xlink="http://www.w3.org/1999/xlink" xmlns:a="http://ns.adobe.com/AdobeSVGViewerExtensions/3.0/"
	 x="0px" y="0px" width="106px" height="70px" viewBox="-10.033 -8.582 106 70"
	 overflow="visible" enable-background="new -10.033 -8.582 106 70" xml:space="preserve">
<defs>
</defs>
<path fill="#FFFFFF" d="M53.301,17.773c0.391,0.388,0.391,1.025,0,1.416l-6.535,6.539c0.074,0.306,0.125,0.629,0.125,0.957
	c0,2.209-1.789,4.011-4,4.011c-1.496,0-2.785-1.023-3.473-2.023h-5.527c-0.551,0-1-0.498-1-1.047V25.72c0-0.549,0.449-1.047,1-1.047
	h5.527c0.688-1,1.977-2.023,3.473-2.023c0.394,0,0.769,0.097,1.131,0.205l6.476-6.475c0.389-0.389,1.026-0.389,1.414,0
	L53.301,17.773z"/>
<path fill="#FFFFFF" d="M84.391,25.837c-0.027-0.113-0.012-0.23-0.053-0.339c-0.014-0.045-0.057-0.066-0.073-0.111
	c-0.023-0.066-0.018-0.134-0.055-0.198C76.543,10.517,59.853,0,42.246,0C24.634,0,7.944,10.497,0.272,25.172
	c-0.033,0.06-0.029,0.134-0.054,0.196c-0.019,0.045-0.055,0.066-0.072,0.113c-0.042,0.107-0.027,0.226-0.057,0.337
	C0.046,26.018,0,26.207,0,26.409C0,26.613,0.048,26.802,0.09,27c0.029,0.113,0.015,0.23,0.057,0.341
	c0.017,0.046,0.054,0.07,0.072,0.113c0.024,0.062,0.021,0.13,0.054,0.192c7.67,14.679,24.361,25.189,41.973,25.189
	c17.607,0,34.298-10.497,41.965-25.166c0.039-0.066,0.034-0.134,0.055-0.198c0.016-0.045,0.059-0.064,0.073-0.111
	c0.041-0.109,0.025-0.228,0.053-0.341c0.043-0.2,0.093-0.387,0.093-0.589C84.484,26.228,84.434,26.036,84.391,25.837z
	 M42.243,47.547c-14.845,0-29.379-8.438-36.621-21.138C12.901,13.692,27.416,5.285,42.243,5.285c14.84,0,29.378,8.44,36.616,21.14
	C71.579,39.144,57.069,47.547,42.243,47.547z"/>
<path fill="#FFFFFF" d="M42.243,7.923c-10.226,0-18.507,8.287-18.507,18.508c0,10.219,8.285,18.506,18.507,18.506
	c10.221,0,18.507-8.287,18.507-18.506C60.75,16.204,52.463,7.923,42.243,7.923z M42.243,42.29c-8.749,0-15.863-7.115-15.863-15.859
	c0-8.75,7.114-15.865,15.863-15.865c8.749,0,15.861,7.115,15.861,15.865C58.104,35.175,50.991,42.29,42.243,42.29z"/>
<path fill="#FFFFFF" d="M52.3,18.506c0.391,0.388,0.391,1.025,0,1.416l-6.535,6.539c0.074,0.306,0.125,0.629,0.125,0.957
	c0,2.209-1.789,4.011-4,4.011c-1.496,0-2.785-1.023-3.473-2.023H32.89c-0.551,0-1-0.498-1-1.047v-1.906c0-0.549,0.449-1.047,1-1.047
	h5.527c0.688-1,1.977-2.023,3.473-2.023c0.394,0,0.769,0.097,1.131,0.205l6.476-6.475c0.389-0.389,1.026-0.389,1.414,0L52.3,18.506z
	"/>
</svg>
